<svg id="Capa_1" enable-background="new 0 0 512 512" height="512" viewBox="0 0 512 512" width="512" xmlns="http://www.w3.org/2000/svg"><g><g><g><path d="m264.699 141.997-65.508 85.661c-5.069 6.629-15.611 1.798-13.9-6.376l13.814-65.818h-42.827c-8.109 0-13.785-8.022-11.077-15.662l25.885-73.27c1.68-4.756 6.176-7.936 11.22-7.936h57.671c9.353 0 15.05 10.294 10.083 18.219l-29.018 46.299h34.328c9.734.001 15.243 11.15 9.329 18.883z" fill="#ffe07d"/><g fill="#ffd064"><path d="m174.167 155.458h-17.891c-8.105 0-13.783-8.014-11.075-15.656l25.885-73.275c1.681-4.752 6.182-7.934 11.226-7.934h17.881c-5.044 0-9.544 3.182-11.216 7.934l-25.895 73.275c-2.698 7.642 2.97 15.656 11.085 15.656z"/><path d="m216.986 155.458-13.813 65.825c-.101.483-.161.946-.171 1.399l-3.806 4.974c-5.074 6.625-15.615 1.802-13.904-6.373l13.813-65.825z"/></g></g><g><path d="m393.711 90.904-65.508 85.661c-5.069 6.629-15.611 1.798-13.9-6.376l13.814-65.818h-42.827c-8.109 0-13.785-8.022-11.077-15.662l25.885-73.27c1.68-4.756 6.176-7.936 11.22-7.936h57.671c9.353 0 15.05 10.294 10.083 18.219l-29.018 46.299h34.328c9.733 0 15.243 11.149 9.329 18.883z" fill="#ffe07d"/><g fill="#ffd064"><path d="m303.179 104.364h-17.891c-8.105 0-13.783-8.014-11.075-15.656l25.885-73.275c1.681-4.752 6.182-7.934 11.226-7.934h17.881c-5.044 0-9.544 3.182-11.216 7.934l-25.895 73.275c-2.698 7.642 2.97 15.656 11.085 15.656z"/><path d="m345.998 104.364-13.813 65.825c-.101.483-.161.946-.171 1.399l-3.806 4.974c-5.074 6.625-15.615 1.802-13.904-6.373l13.813-65.825z"/></g></g><g><g fill="#f7e3c1"><circle cx="77.041" cy="359.252" r="51.551"/><circle cx="434.969" cy="359.252" r="51.551"/></g><path d="m409.149 204.197v159.186c0 77.937-63.18 141.118-141.118 141.118h-24.049c-77.938 0-141.131-63.18-141.131-141.118v-159.186z" fill="#fbf1dd"/><path d="m409.149 204.202v110.406c-45.235-.026-41.292-110.406-41.292-110.406z" fill="#4a80aa"/><path d="m302.986 500.14c-11.178 2.85-22.89 4.36-34.954 4.36h-24.049c-77.944 0-141.131-63.186-141.131-141.131v-159.172s93.996.67 93.444.299c-.237-.158.552.085.552.37v158.516c0 65.861 45.131 121.181 106.138 136.758z" fill="#f7e3c1"/><path d="m102.856 204.209v110.406c45.235-.026 41.292-110.406 41.292-110.406z" fill="#407093"/></g></g><g><path d="m285.293 111.87h33.583l-11.914 56.783c-1.501 7.171 1.965 14.039 8.625 17.09 2.136.979 4.353 1.452 6.527 1.452 4.608 0 9.023-2.126 12.046-6.079l65.511-85.661c4.479-5.859 5.233-13.606 1.966-20.217-3.268-6.611-9.879-10.718-17.254-10.718h-20.777l21.82-34.813c3.806-6.064 4.008-13.427.541-19.695-3.467-6.269-9.812-10.012-16.973-10.012h-57.681c-8.209 0-15.561 5.202-18.291 12.941l-5.16 14.6c-1.38 3.905.667 8.19 4.572 9.57 3.904 1.38 8.19-.667 9.57-4.572l5.161-14.604c.62-1.756 2.286-2.936 4.147-2.936h57.681c3.868.458 5.396 3.213 3.726 6.737l-29.021 46.3c-1.449 2.312-1.528 5.228-.208 7.615 1.321 2.387 3.834 3.869 6.562 3.869h34.33c3.883.425 5.394 3.478 3.373 6.824l-65.511 85.66c-.086.113-.149.166-.135.167-.144.026-.433-.115-.491-.196-.004-.02-.006-.104.023-.245l13.811-65.82c.464-2.211-.094-4.514-1.518-6.268s-3.562-2.772-5.822-2.772h-42.82c-3.609-.61-4.639-2.187-4.008-5.663l10.78-30.53c1.379-3.906-.669-8.19-4.575-9.569s-8.189.668-9.569 4.575l-10.776 30.52c-2.084 5.876-1.181 12.426 2.418 17.521 3.605 5.1 9.485 8.146 15.731 8.146z"/><path d="m434.963 300.2c-6.241 0-12.424.998-18.314 2.914v-98.917c0-4.142-3.357-7.5-7.5-7.5h-176.834l38.338-50.137c4.485-5.858 5.242-13.607 1.976-20.222s-9.878-10.725-17.254-10.725h-20.778l21.821-34.814c3.801-6.075 3.998-13.442.528-19.707-3.467-6.258-9.809-9.995-16.965-9.995h-57.68c-8.2 0-15.549 5.197-18.287 12.936l-25.883 73.267c-2.082 5.876-1.178 12.426 2.421 17.519 3.603 5.099 9.48 8.143 15.724 8.143h33.592l-7.081 33.736h-79.935c-4.143 0-7.5 3.363-7.5 7.505v98.908c-5.887-1.916-12.07-2.913-18.314-2.913-32.561 0-59.051 26.49-59.051 59.05s26.49 59.051 59.051 59.051c9.341 0 18.34-2.153 26.5-6.27 20.195 58.128 75.521 99.971 140.445 99.971h24.049c64.917 0 120.237-41.841 140.431-99.969 3.049 1.533 6.229 2.798 9.519 3.783.718.215 1.441.317 2.154.317 3.228 0 6.208-2.1 7.182-5.351 1.188-3.968-1.065-8.148-5.033-9.336-3.346-1.002-6.536-2.403-9.54-4.163 2.393-10.216 3.72-20.836 3.877-31.735 8.828-13.071 28.703-8.552 29.631-8.333 4.008.972 8.064-1.485 9.05-5.501.987-4.023-1.474-8.084-5.497-9.071-.333-.082-8.268-1.99-17.75-1.038-5.763.579-10.924 2.071-15.406 4.41v-26.812c5.729-2.613 11.978-4.001 18.314-4.001 24.289 0 44.05 19.761 44.05 44.05 0 19.299-12.894 36.647-31.355 42.187-3.968 1.19-6.219 5.372-5.028 9.339.975 3.249 3.955 5.347 7.181 5.347.714 0 1.439-.103 2.158-.318 24.756-7.428 42.045-30.684 42.045-56.554-.002-32.561-26.491-59.051-59.052-59.051zm-33.314 5.256c-2.175-1.025-4.22-2.523-6.156-4.529-16.743-17.343-20.238-65.019-20.256-89.231h26.413v93.76zm-196.722-154.723c-1.424-1.754-3.562-2.772-5.822-2.772h-42.829c-1.987 0-3.091-1.258-3.473-1.798-.473-.668-1.169-2.057-.531-3.859l25.884-73.271c.621-1.756 2.287-2.936 4.146-2.936h57.68c3.871.458 5.392 3.209 3.724 6.74l-29.016 46.293c-1.449 2.312-1.528 5.228-.208 7.614 1.321 2.387 3.834 3.869 6.562 3.869h34.331c3.882.427 5.396 3.484 3.365 6.832l-45.308 59.252h-15.319l8.331-39.695c.465-2.212-.092-4.514-1.517-6.269zm-68.15 60.964c-.019 24.212-3.512 71.888-20.256 89.231-1.94 2.01-3.989 3.51-6.169 4.535v-93.766zm-59.739 191.601c-24.29 0-44.051-19.761-44.051-44.051s19.761-44.05 44.051-44.05c6.342 0 12.591 1.388 18.314 4.001v26.811c-4.48-2.336-9.638-3.827-15.397-4.406-9.487-.951-17.417.957-17.75 1.038-4.013.984-6.46 5.026-5.489 9.042s5.018 6.489 9.038 5.532c.874-.208 20.781-4.755 29.626 8.319.156 10.904 1.484 21.53 3.878 31.751-6.709 3.943-14.3 6.013-22.22 6.013zm190.994 93.702h-24.049c-73.685 0-133.631-59.94-133.631-133.618v-42.111c6.293-1.447 11.98-4.763 16.968-9.933 22.157-22.961 24.397-78.937 24.438-99.642h208.497c.041 20.704 2.282 76.681 24.439 99.642 4.984 5.166 10.667 8.481 16.955 9.93v42.114c0 73.678-59.941 133.618-133.617 133.618z"/><path d="m183.266 307.54c-9.396 0-17.04 10.479-17.04 23.359s7.645 23.359 17.04 23.359 17.039-10.479 17.039-23.359-7.643-23.359-17.039-23.359z"/><path d="m328.745 307.54c-9.396 0-17.04 10.479-17.04 23.359s7.645 23.359 17.04 23.359 17.039-10.479 17.039-23.359-7.644-23.359-17.039-23.359z"/><path d="m158.026 275.283c-2.929 2.929-2.929 7.678 0 10.606 1.465 1.464 3.385 2.197 5.304 2.197s3.839-.732 5.304-2.197c8.622-8.624 22.656-8.625 31.284 0 2.928 2.929 7.677 2.928 10.606 0 2.929-2.929 2.929-7.678-.001-10.607-14.473-14.472-38.023-14.471-52.497.001z"/><path d="m302.958 275.283c-2.929 2.929-2.929 7.678 0 10.606 1.465 1.464 3.385 2.197 5.304 2.197s3.839-.732 5.304-2.197c8.622-8.624 22.656-8.625 31.284 0 2.928 2.929 7.677 2.928 10.606 0 2.929-2.929 2.929-7.678-.001-10.607-14.473-14.472-38.023-14.471-52.497.001z"/><path d="m288.136 366.628c-3.968-1.178-8.145 1.084-9.324 5.055-2.968 9.994-12.347 16.974-22.807 16.974-10.449 0-19.828-6.983-22.81-16.982-1.185-3.968-5.358-6.23-9.33-5.044-3.97 1.184-6.229 5.361-5.045 9.331 4.862 16.307 20.153 27.696 37.185 27.696 17.051 0 32.342-11.392 37.186-27.704 1.18-3.972-1.084-8.147-5.055-9.326z"/></g></g></svg>